<svg width="120" height="120" viewBox="0 0 120 120" fill="none" xmlns="http://www.w3.org/2000/svg">
<g clip-path="url(#clip0_103504_8)">
<rect width="120" height="120" rx="60" fill="white" fill-opacity="0.1"/>
<path opacity="0.1" d="M60 73.9614C53.4 73.9614 48 71.9098 43.8 67.8068C39.6 63.7037 37.5 58.4283 37.5 51.9807C37.5 45.533 39.6 40.2576 43.8 36.1546C48 32.0515 53.4 30 60 30C66.6 30 72 32.0515 76.2 36.1546C80.4 40.2576 82.5 45.533 82.5 51.9807C82.5 58.4283 80.4 63.7037 76.2 67.8068C72 71.9098 66.6 73.9614 60 73.9614ZM12 121V107.225C12 103.513 12.95 100.338 14.85 97.7005C16.75 95.0628 19.2 93.0601 22.2 91.6924C28.9 88.7617 35.325 86.5636 41.475 85.0982C47.625 83.6329 53.8 82.9002 60 82.9002C66.2 82.9002 72.35 83.6573 78.45 85.1715C84.55 86.6857 90.95 88.8594 97.65 91.6924C100.75 93.0601 103.25 95.0628 105.15 97.7005C107.05 100.338 108 103.513 108 107.225V121H12Z" fill="white"/>
</g>
<defs>
<clipPath id="clip0_103504_8">
<rect width="120" height="120" rx="60" fill="white"/>
</clipPath>
</defs>
</svg>
